<svg width="32" height="32" viewBox="0 0 32 32" fill="none" xmlns="http://www.w3.org/2000/svg">
<mask id="mask0_5_8" style="mask-type:alpha" maskUnits="userSpaceOnUse" x="0" y="0" width="32" height="32">
<rect width="32" height="32" fill="#D9D9D9"/>
</mask>
<g mask="url(#mask0_5_8)">
<path d="M16 15.5896C14.7167 15.5896 13.6181 15.1327 12.7042 14.2188C11.7903 13.305 11.3333 12.2064 11.3333 10.923C11.3333 9.63971 11.7903 8.54111 12.7042 7.62724C13.6181 6.71335 14.7167 6.25641 16 6.25641C17.2833 6.25641 18.3819 6.71335 19.2958 7.62724C20.2097 8.54111 20.6666 9.63971 20.6666 10.923C20.6666 12.2064 20.2097 13.305 19.2958 14.2188C18.3819 15.1327 17.2833 15.5896 16 15.5896ZM6 25.7435V22.7794C6 22.1264 6.17736 21.5217 6.53207 20.9653C6.88676 20.4089 7.36068 19.9812 7.95383 19.682C9.27179 19.0359 10.6013 18.5512 11.9423 18.2282C13.2833 17.9051 14.6359 17.7436 16 17.7436C17.3641 17.7436 18.7166 17.9051 20.0576 18.2282C21.3987 18.5512 22.7281 19.0359 24.0461 19.682C24.6393 19.9812 25.1132 20.4089 25.4679 20.9653C25.8226 21.5217 25.9999 22.1264 25.9999 22.7794V25.7435H6ZM7.99997 23.7435H24V22.7794C24 22.5093 23.9218 22.2593 23.7653 22.0294C23.6089 21.7995 23.3965 21.6119 23.1282 21.4666C21.9795 20.9008 20.8081 20.4721 19.6142 20.1807C18.4203 19.8892 17.2156 19.7435 16 19.7435C14.7844 19.7435 13.5796 19.8892 12.3857 20.1807C11.1918 20.4721 10.0205 20.9008 8.87177 21.4666C8.60339 21.6119 8.391 21.7995 8.2346 22.0294C8.07818 22.2593 7.99997 22.5093 7.99997 22.7794V23.7435ZM16 13.5897C16.7333 13.5897 17.3611 13.3286 17.8833 12.8064C18.4055 12.2842 18.6666 11.6564 18.6666 10.923C18.6666 10.1897 18.4055 9.56193 17.8833 9.03971C17.3611 8.51749 16.7333 8.25638 16 8.25638C15.2666 8.25638 14.6389 8.51749 14.1166 9.03971C13.5944 9.56193 13.3333 10.1897 13.3333 10.923C13.3333 11.6564 13.5944 12.2842 14.1166 12.8064C14.6389 13.3286 15.2666 13.5897 16 13.5897Z" fill="white"/>
</g>
</svg>
