<svg width="24" height="24" viewBox="0 0 24 24" fill="none" xmlns="http://www.w3.org/2000/svg">
<mask id="mask0_2_122" style="mask-type:alpha" maskUnits="userSpaceOnUse" x="0" y="0" width="24" height="24">
<rect width="24" height="24" fill="#D9D9D9"/>
</mask>
<g mask="url(#mask0_2_122)">
<path d="M7.99998 10.8846C8.24484 10.8846 8.45349 10.7984 8.62593 10.626C8.79836 10.4535 8.88458 10.2449 8.88458 10C8.88458 9.75514 8.79836 9.54649 8.62593 9.37406C8.45349 9.20162 8.24484 9.11541 7.99998 9.11541C7.75511 9.11541 7.54646 9.20162 7.37403 9.37406C7.20159 9.54649 7.11538 9.75514 7.11538 10C7.11538 10.2449 7.20159 10.4535 7.37403 10.626C7.54646 10.7984 7.75511 10.8846 7.99998 10.8846ZM12 10.8846C12.2448 10.8846 12.4535 10.7984 12.6259 10.626C12.7984 10.4535 12.8846 10.2449 12.8846 10C12.8846 9.75514 12.7984 9.54649 12.6259 9.37406C12.4535 9.20162 12.2448 9.11541 12 9.11541C11.7551 9.11541 11.5465 9.20162 11.374 9.37406C11.2016 9.54649 11.1154 9.75514 11.1154 10C11.1154 10.2449 11.2016 10.4535 11.374 10.626C11.5465 10.7984 11.7551 10.8846 12 10.8846ZM16 10.8846C16.2448 10.8846 16.4535 10.7984 16.6259 10.626C16.7984 10.4535 16.8846 10.2449 16.8846 10C16.8846 9.75514 16.7984 9.54649 16.6259 9.37406C16.4535 9.20162 16.2448 9.11541 16 9.11541C15.7551 9.11541 15.5465 9.20162 15.374 9.37406C15.2016 9.54649 15.1154 9.75514 15.1154 10C15.1154 10.2449 15.2016 10.4535 15.374 10.626C15.5465 10.7984 15.7551 10.8846 16 10.8846ZM2.5 21.0384V4.30773C2.5 3.8026 2.675 3.37503 3.025 3.02503C3.375 2.67503 3.80257 2.50003 4.3077 2.50003H19.6923C20.1974 2.50003 20.625 2.67503 20.975 3.02503C21.325 3.37503 21.5 3.8026 21.5 4.30773V15.6923C21.5 16.1974 21.325 16.625 20.975 16.975C20.625 17.325 20.1974 17.5 19.6923 17.5H6.03845L2.5 21.0384ZM5.4 16H19.6923C19.7692 16 19.8397 15.968 19.9038 15.9039C19.9679 15.8397 20 15.7692 20 15.6923V4.30773C20 4.2308 19.9679 4.16027 19.9038 4.09616C19.8397 4.03206 19.7692 4.00001 19.6923 4.00001H4.3077C4.23077 4.00001 4.16024 4.03206 4.09613 4.09616C4.03202 4.16027 3.99998 4.2308 3.99998 4.30773V17.3846L5.4 16Z" fill="white"/>
</g>
</svg>
