<svg width="24" height="24" viewBox="0 0 24 24" fill="none" xmlns="http://www.w3.org/2000/svg">
<mask id="mask0_5_35" style="mask-type:alpha" maskUnits="userSpaceOnUse" x="0" y="0" width="24" height="24">
<rect width="24" height="24" fill="#D9D9D9"/>
</mask>
<g mask="url(#mask0_5_35)">
<path d="M10 22V16H7L10.05 8.3C10.2167 7.9 10.475 7.58333 10.825 7.35C11.175 7.11667 11.5667 7 12 7C12.4333 7 12.825 7.11667 13.175 7.35C13.525 7.58333 13.7833 7.9 13.95 8.3L17 16H14V22H10ZM12 6C11.45 6 10.9792 5.80417 10.5875 5.4125C10.1958 5.02083 10 4.55 10 4C10 3.45 10.1958 2.97917 10.5875 2.5875C10.9792 2.19583 11.45 2 12 2C12.55 2 13.0208 2.19583 13.4125 2.5875C13.8042 2.97917 14 3.45 14 4C14 4.55 13.8042 5.02083 13.4125 5.4125C13.0208 5.80417 12.55 6 12 6Z" fill="#1C1B1F"/>
</g>
</svg>
